<mxfile host="app.diagrams.net" agent="Mozilla/5.0 (Windows NT 10.0; Win64; x64) AppleWebKit/537.36 (KHTML, like Gecko) Chrome/140.0.0.0 Safari/537.36" version="28.2.5">
  <diagram name="Page-1" id="0FveS2tX93X4ZdKStLT3">
    <mxGraphModel dx="946" dy="563" grid="0" gridSize="10" guides="1" tooltips="1" connect="1" arrows="1" fold="1" page="1" pageScale="1" pageWidth="1169" pageHeight="827" math="0" shadow="0">
      <root>
        <mxCell id="0" />
        <mxCell id="1" parent="0" />
        <mxCell id="ZmzHimU4FkvrAkHHGpjB-24" value="" style="rounded=0;whiteSpace=wrap;html=1;" parent="1" vertex="1">
          <mxGeometry x="181" y="194" width="829" height="266" as="geometry" />
        </mxCell>
        <mxCell id="ZmzHimU4FkvrAkHHGpjB-4" style="edgeStyle=orthogonalEdgeStyle;rounded=0;orthogonalLoop=1;jettySize=auto;html=1;exitX=1;exitY=0.5;exitDx=0;exitDy=0;entryX=0;entryY=0.5;entryDx=0;entryDy=0;" parent="1" source="ZmzHimU4FkvrAkHHGpjB-2" target="ZmzHimU4FkvrAkHHGpjB-3" edge="1">
          <mxGeometry relative="1" as="geometry" />
        </mxCell>
        <mxCell id="ZmzHimU4FkvrAkHHGpjB-2" value="inventory.yaml" style="rounded=0;whiteSpace=wrap;html=1;" parent="1" vertex="1">
          <mxGeometry x="191" y="320" width="94" height="40" as="geometry" />
        </mxCell>
        <mxCell id="rLja4aOVXikeudo826eQ-23" style="edgeStyle=orthogonalEdgeStyle;rounded=0;orthogonalLoop=1;jettySize=auto;html=1;exitX=0.5;exitY=1;exitDx=0;exitDy=0;entryX=0.5;entryY=0;entryDx=0;entryDy=0;" parent="1" source="ZmzHimU4FkvrAkHHGpjB-3" target="rLja4aOVXikeudo826eQ-22" edge="1">
          <mxGeometry relative="1" as="geometry" />
        </mxCell>
        <mxCell id="Zzj0IOWBo7RuuzBgoP1q-1" style="edgeStyle=orthogonalEdgeStyle;rounded=0;orthogonalLoop=1;jettySize=auto;html=1;exitX=1;exitY=0.5;exitDx=0;exitDy=0;" edge="1" parent="1" source="ZmzHimU4FkvrAkHHGpjB-3" target="ZmzHimU4FkvrAkHHGpjB-11">
          <mxGeometry relative="1" as="geometry" />
        </mxCell>
        <mxCell id="ZmzHimU4FkvrAkHHGpjB-3" value="paper-sync.app" style="rounded=0;whiteSpace=wrap;html=1;" parent="1" vertex="1">
          <mxGeometry x="323" y="320" width="94" height="40" as="geometry" />
        </mxCell>
        <mxCell id="ZmzHimU4FkvrAkHHGpjB-6" style="edgeStyle=orthogonalEdgeStyle;rounded=0;orthogonalLoop=1;jettySize=auto;html=1;exitX=0.5;exitY=1;exitDx=0;exitDy=0;entryX=0.5;entryY=0;entryDx=0;entryDy=0;shape=link;" parent="1" source="ZmzHimU4FkvrAkHHGpjB-5" target="ZmzHimU4FkvrAkHHGpjB-3" edge="1">
          <mxGeometry relative="1" as="geometry" />
        </mxCell>
        <mxCell id="ZmzHimU4FkvrAkHHGpjB-5" value="database" style="shape=datastore;whiteSpace=wrap;html=1;" parent="1" vertex="1">
          <mxGeometry x="336" y="247" width="68" height="44" as="geometry" />
        </mxCell>
        <mxCell id="ZmzHimU4FkvrAkHHGpjB-7" value="&lt;span&gt;&lt;/span&gt;&lt;span&gt;&lt;/span&gt;&lt;span style=&quot;white-space-collapse: preserve;&quot;&gt;&lt;font style=&quot;font-size: 8px;&quot;&gt;paper_sync_schema_collection_log&lt;/font&gt;&lt;/span&gt;" style="swimlane;fontStyle=0;childLayout=stackLayout;horizontal=1;startSize=30;horizontalStack=0;resizeParent=1;resizeParentMax=0;resizeLast=0;collapsible=1;marginBottom=0;whiteSpace=wrap;html=1;" parent="1" vertex="1">
          <mxGeometry x="609" y="260" width="140" height="60" as="geometry" />
        </mxCell>
        <mxCell id="ZmzHimU4FkvrAkHHGpjB-8" value="&lt;span&gt;&lt;/span&gt;&lt;span&gt;&lt;/span&gt;&lt;span style=&quot;white-space-collapse: preserve;&quot;&gt;&lt;font style=&quot;font-size: 8px;&quot;&gt;id (PK)&lt;/font&gt;&lt;/span&gt;" style="text;strokeColor=none;fillColor=none;align=left;verticalAlign=middle;spacingLeft=4;spacingRight=4;overflow=hidden;points=[[0,0.5],[1,0.5]];portConstraint=eastwest;rotatable=0;whiteSpace=wrap;html=1;" parent="ZmzHimU4FkvrAkHHGpjB-7" vertex="1">
          <mxGeometry y="30" width="140" height="30" as="geometry" />
        </mxCell>
        <mxCell id="ZmzHimU4FkvrAkHHGpjB-11" value="&lt;span&gt;&lt;/span&gt;&lt;span&gt;&lt;/span&gt;&lt;span&gt;&lt;/span&gt;&lt;span style=&quot;white-space-collapse: preserve;&quot;&gt;&lt;font style=&quot;font-size: 9px;&quot;&gt;paper_sync_diff_snapshot&lt;/font&gt;&lt;/span&gt;" style="swimlane;fontStyle=0;childLayout=stackLayout;horizontal=1;startSize=30;horizontalStack=0;resizeParent=1;resizeParentMax=0;resizeLast=0;collapsible=1;marginBottom=0;whiteSpace=wrap;html=1;" parent="1" vertex="1">
          <mxGeometry x="458" y="276" width="140" height="60" as="geometry" />
        </mxCell>
        <mxCell id="ZmzHimU4FkvrAkHHGpjB-12" value="&lt;span&gt;&lt;/span&gt;&lt;span&gt;&lt;/span&gt;&lt;span&gt;&lt;/span&gt;&lt;span style=&quot;white-space-collapse: preserve;&quot;&gt;&lt;font style=&quot;font-size: 8px;&quot;&gt;collection_id (FK)&lt;/font&gt;&lt;/span&gt;" style="text;strokeColor=none;fillColor=none;align=left;verticalAlign=middle;spacingLeft=4;spacingRight=4;overflow=hidden;points=[[0,0.5],[1,0.5]];portConstraint=eastwest;rotatable=0;whiteSpace=wrap;html=1;" parent="ZmzHimU4FkvrAkHHGpjB-11" vertex="1">
          <mxGeometry y="30" width="140" height="30" as="geometry" />
        </mxCell>
        <mxCell id="ZmzHimU4FkvrAkHHGpjB-26" value="Cron Architecture" style="text;html=1;align=left;verticalAlign=middle;whiteSpace=wrap;rounded=0;" parent="1" vertex="1">
          <mxGeometry x="186" y="200" width="60" height="30" as="geometry" />
        </mxCell>
        <mxCell id="rLja4aOVXikeudo826eQ-20" value="" style="group" parent="1" vertex="1" connectable="0">
          <mxGeometry x="180" y="478" width="599" height="249" as="geometry" />
        </mxCell>
        <mxCell id="rLja4aOVXikeudo826eQ-19" value="" style="rounded=0;whiteSpace=wrap;html=1;" parent="rLja4aOVXikeudo826eQ-20" vertex="1">
          <mxGeometry width="599" height="249" as="geometry" />
        </mxCell>
        <mxCell id="rLja4aOVXikeudo826eQ-8" style="edgeStyle=orthogonalEdgeStyle;rounded=0;orthogonalLoop=1;jettySize=auto;html=1;exitX=0.96;exitY=0.7;exitDx=0;exitDy=0;exitPerimeter=0;entryX=0.5;entryY=0;entryDx=0;entryDy=0;shape=link;" parent="rLja4aOVXikeudo826eQ-20" source="rLja4aOVXikeudo826eQ-1" target="rLja4aOVXikeudo826eQ-4" edge="1">
          <mxGeometry relative="1" as="geometry" />
        </mxCell>
        <mxCell id="rLja4aOVXikeudo826eQ-1" value="from spaceship" style="ellipse;shape=cloud;whiteSpace=wrap;html=1;" parent="rLja4aOVXikeudo826eQ-20" vertex="1">
          <mxGeometry x="3" y="109.94000000000005" width="148" height="53" as="geometry" />
        </mxCell>
        <mxCell id="rLja4aOVXikeudo826eQ-4" value="paper-sync routes" style="swimlane;fontStyle=0;childLayout=stackLayout;horizontal=1;startSize=30;horizontalStack=0;resizeParent=1;resizeParentMax=0;resizeLast=0;collapsible=1;marginBottom=0;whiteSpace=wrap;html=1;" parent="rLja4aOVXikeudo826eQ-20" vertex="1">
          <mxGeometry x="193" y="79.94" width="157.5" height="150" as="geometry" />
        </mxCell>
        <mxCell id="rLja4aOVXikeudo826eQ-5" value="/get/mysql&lt;div&gt;list all database&lt;/div&gt;" style="text;strokeColor=none;fillColor=none;align=left;verticalAlign=middle;spacingLeft=4;spacingRight=4;overflow=hidden;points=[[0,0.5],[1,0.5]];portConstraint=eastwest;rotatable=0;whiteSpace=wrap;html=1;" parent="rLja4aOVXikeudo826eQ-4" vertex="1">
          <mxGeometry y="30" width="157.5" height="30" as="geometry" />
        </mxCell>
        <mxCell id="rLja4aOVXikeudo826eQ-6" value="/diff/get/mysql&lt;div&gt;get diff&lt;/div&gt;" style="text;strokeColor=none;fillColor=none;align=left;verticalAlign=middle;spacingLeft=4;spacingRight=4;overflow=hidden;points=[[0,0.5],[1,0.5]];portConstraint=eastwest;rotatable=0;whiteSpace=wrap;html=1;" parent="rLja4aOVXikeudo826eQ-4" vertex="1">
          <mxGeometry y="60" width="157.5" height="30" as="geometry" />
        </mxCell>
        <mxCell id="rLja4aOVXikeudo826eQ-7" value="/diff/generate/mysql&lt;div&gt;generate sql&lt;/div&gt;" style="text;strokeColor=none;fillColor=none;align=left;verticalAlign=middle;spacingLeft=4;spacingRight=4;overflow=hidden;points=[[0,0.5],[1,0.5]];portConstraint=eastwest;rotatable=0;whiteSpace=wrap;html=1;" parent="rLja4aOVXikeudo826eQ-4" vertex="1">
          <mxGeometry y="90" width="157.5" height="30" as="geometry" />
        </mxCell>
        <mxCell id="rLja4aOVXikeudo826eQ-9" value="/sync&lt;div&gt;upload sql&lt;/div&gt;" style="text;strokeColor=none;fillColor=none;align=left;verticalAlign=middle;spacingLeft=4;spacingRight=4;overflow=hidden;points=[[0,0.5],[1,0.5]];portConstraint=eastwest;rotatable=0;whiteSpace=wrap;html=1;" parent="rLja4aOVXikeudo826eQ-4" vertex="1">
          <mxGeometry y="120" width="157.5" height="30" as="geometry" />
        </mxCell>
        <mxCell id="rLja4aOVXikeudo826eQ-15" style="edgeStyle=orthogonalEdgeStyle;rounded=0;orthogonalLoop=1;jettySize=auto;html=1;exitX=1;exitY=0.5;exitDx=0;exitDy=0;entryX=0;entryY=0.5;entryDx=0;entryDy=0;" parent="rLja4aOVXikeudo826eQ-20" source="rLja4aOVXikeudo826eQ-10" target="rLja4aOVXikeudo826eQ-14" edge="1">
          <mxGeometry relative="1" as="geometry" />
        </mxCell>
        <mxCell id="rLja4aOVXikeudo826eQ-10" value="Slack Channel" style="rounded=0;whiteSpace=wrap;html=1;" parent="rLja4aOVXikeudo826eQ-20" vertex="1">
          <mxGeometry x="387" y="157.94000000000005" width="103" height="34" as="geometry" />
        </mxCell>
        <mxCell id="rLja4aOVXikeudo826eQ-11" style="edgeStyle=orthogonalEdgeStyle;rounded=0;orthogonalLoop=1;jettySize=auto;html=1;exitX=1;exitY=0.5;exitDx=0;exitDy=0;entryX=0.5;entryY=1;entryDx=0;entryDy=0;" parent="rLja4aOVXikeudo826eQ-20" source="rLja4aOVXikeudo826eQ-9" target="rLja4aOVXikeudo826eQ-10" edge="1">
          <mxGeometry relative="1" as="geometry" />
        </mxCell>
        <mxCell id="rLja4aOVXikeudo826eQ-12" value="database" style="shape=datastore;whiteSpace=wrap;html=1;" parent="rLja4aOVXikeudo826eQ-20" vertex="1">
          <mxGeometry x="408" y="80.94000000000005" width="68" height="44" as="geometry" />
        </mxCell>
        <mxCell id="rLja4aOVXikeudo826eQ-13" value="github paper-sync" style="rounded=0;whiteSpace=wrap;html=1;" parent="rLja4aOVXikeudo826eQ-20" vertex="1">
          <mxGeometry x="485" y="83.44" width="106" height="39" as="geometry" />
        </mxCell>
        <mxCell id="rLja4aOVXikeudo826eQ-16" style="edgeStyle=orthogonalEdgeStyle;rounded=0;orthogonalLoop=1;jettySize=auto;html=1;exitX=0.5;exitY=0;exitDx=0;exitDy=0;" parent="rLja4aOVXikeudo826eQ-20" source="rLja4aOVXikeudo826eQ-14" target="rLja4aOVXikeudo826eQ-13" edge="1">
          <mxGeometry relative="1" as="geometry" />
        </mxCell>
        <mxCell id="rLja4aOVXikeudo826eQ-18" style="edgeStyle=orthogonalEdgeStyle;rounded=0;orthogonalLoop=1;jettySize=auto;html=1;exitX=0.5;exitY=0;exitDx=0;exitDy=0;entryX=0.5;entryY=1;entryDx=0;entryDy=0;" parent="rLja4aOVXikeudo826eQ-20" source="rLja4aOVXikeudo826eQ-14" target="rLja4aOVXikeudo826eQ-12" edge="1">
          <mxGeometry relative="1" as="geometry">
            <Array as="points">
              <mxPoint x="527.5" y="140.94000000000005" />
              <mxPoint x="424.5" y="140.94000000000005" />
            </Array>
          </mxGeometry>
        </mxCell>
        <mxCell id="rLja4aOVXikeudo826eQ-14" value="Gatekeeping" style="rounded=0;whiteSpace=wrap;html=1;" parent="rLja4aOVXikeudo826eQ-20" vertex="1">
          <mxGeometry x="509" y="157.94000000000005" width="72" height="34" as="geometry" />
        </mxCell>
        <mxCell id="rLja4aOVXikeudo826eQ-21" value="Dreamgen Flow" style="text;html=1;align=left;verticalAlign=middle;whiteSpace=wrap;rounded=0;" parent="rLja4aOVXikeudo826eQ-20" vertex="1">
          <mxGeometry x="8" y="10" width="60" height="30" as="geometry" />
        </mxCell>
        <mxCell id="rLja4aOVXikeudo826eQ-22" value="Slack&lt;div&gt;Notify for diff&lt;/div&gt;" style="rounded=0;whiteSpace=wrap;html=1;" parent="1" vertex="1">
          <mxGeometry x="325" y="391" width="90" height="38" as="geometry" />
        </mxCell>
        <mxCell id="rLja4aOVXikeudo826eQ-24" value="&lt;span&gt;&lt;/span&gt;&lt;span&gt;&lt;/span&gt;&lt;span&gt;&lt;/span&gt;&lt;span style=&quot;white-space-collapse: preserve;&quot;&gt;&lt;font style=&quot;font-size: 9px;&quot;&gt;paper_sync_schema_diff&lt;/font&gt;&lt;/span&gt;" style="swimlane;fontStyle=0;childLayout=stackLayout;horizontal=1;startSize=30;horizontalStack=0;resizeParent=1;resizeParentMax=0;resizeLast=0;collapsible=1;marginBottom=0;whiteSpace=wrap;html=1;" parent="1" vertex="1">
          <mxGeometry x="767" y="230" width="140" height="90" as="geometry" />
        </mxCell>
        <mxCell id="rLja4aOVXikeudo826eQ-25" value="&lt;span&gt;&lt;/span&gt;&lt;span style=&quot;font-size: 8px; white-space-collapse: preserve;&quot;&gt;source_collection_id&lt;/span&gt;&amp;nbsp;&lt;font style=&quot;font-size: 8px;&quot;&gt;(FK)&lt;/font&gt;" style="text;strokeColor=none;fillColor=none;align=left;verticalAlign=middle;spacingLeft=4;spacingRight=4;overflow=hidden;points=[[0,0.5],[1,0.5]];portConstraint=eastwest;rotatable=0;whiteSpace=wrap;html=1;" parent="rLja4aOVXikeudo826eQ-24" vertex="1">
          <mxGeometry y="30" width="140" height="30" as="geometry" />
        </mxCell>
        <mxCell id="rLja4aOVXikeudo826eQ-26" value="&lt;span&gt;&lt;/span&gt;&lt;span style=&quot;font-size: 8px; white-space-collapse: preserve;&quot;&gt;target_collection_id&lt;/span&gt;&amp;nbsp; &lt;font style=&quot;font-size: 8px;&quot;&gt;(FK)&lt;/font&gt;" style="text;strokeColor=none;fillColor=none;align=left;verticalAlign=middle;spacingLeft=4;spacingRight=4;overflow=hidden;points=[[0,0.5],[1,0.5]];portConstraint=eastwest;rotatable=0;whiteSpace=wrap;html=1;" parent="rLja4aOVXikeudo826eQ-24" vertex="1">
          <mxGeometry y="60" width="140" height="30" as="geometry" />
        </mxCell>
        <mxCell id="rLja4aOVXikeudo826eQ-35" value="&lt;span&gt;&lt;/span&gt;&lt;span&gt;&lt;/span&gt;&lt;span style=&quot;white-space-collapse: preserve;&quot;&gt;&lt;font style=&quot;font-size: 8px;&quot;&gt;paper_sync_index_collection_log&lt;/font&gt;&lt;/span&gt;" style="swimlane;fontStyle=0;childLayout=stackLayout;horizontal=1;startSize=30;horizontalStack=0;resizeParent=1;resizeParentMax=0;resizeLast=0;collapsible=1;marginBottom=0;whiteSpace=wrap;html=1;" parent="1" vertex="1">
          <mxGeometry x="609" y="336" width="140" height="60" as="geometry" />
        </mxCell>
        <mxCell id="rLja4aOVXikeudo826eQ-36" value="&lt;span&gt;&lt;/span&gt;&lt;span&gt;&lt;/span&gt;&lt;span style=&quot;white-space-collapse: preserve;&quot;&gt;&lt;font style=&quot;font-size: 8px;&quot;&gt;id (PK)&lt;/font&gt;&lt;/span&gt;" style="text;strokeColor=none;fillColor=none;align=left;verticalAlign=middle;spacingLeft=4;spacingRight=4;overflow=hidden;points=[[0,0.5],[1,0.5]];portConstraint=eastwest;rotatable=0;whiteSpace=wrap;html=1;" parent="rLja4aOVXikeudo826eQ-35" vertex="1">
          <mxGeometry y="30" width="140" height="30" as="geometry" />
        </mxCell>
        <mxCell id="rLja4aOVXikeudo826eQ-37" value="&lt;span&gt;&lt;/span&gt;&lt;span&gt;&lt;/span&gt;&lt;span&gt;&lt;/span&gt;&lt;span style=&quot;white-space-collapse: preserve;&quot;&gt;&lt;font style=&quot;font-size: 9px;&quot;&gt;paper_sync_index_diff&lt;/font&gt;&lt;/span&gt;" style="swimlane;fontStyle=0;childLayout=stackLayout;horizontal=1;startSize=30;horizontalStack=0;resizeParent=1;resizeParentMax=0;resizeLast=0;collapsible=1;marginBottom=0;whiteSpace=wrap;html=1;" parent="1" vertex="1">
          <mxGeometry x="767" y="345" width="140" height="90" as="geometry" />
        </mxCell>
        <mxCell id="rLja4aOVXikeudo826eQ-38" value="&lt;span&gt;&lt;/span&gt;&lt;span style=&quot;font-size: 8px; white-space-collapse: preserve;&quot;&gt;source_collection_id&lt;/span&gt;&amp;nbsp;&lt;font style=&quot;font-size: 8px;&quot;&gt;(FK)&lt;/font&gt;" style="text;strokeColor=none;fillColor=none;align=left;verticalAlign=middle;spacingLeft=4;spacingRight=4;overflow=hidden;points=[[0,0.5],[1,0.5]];portConstraint=eastwest;rotatable=0;whiteSpace=wrap;html=1;" parent="rLja4aOVXikeudo826eQ-37" vertex="1">
          <mxGeometry y="30" width="140" height="30" as="geometry" />
        </mxCell>
        <mxCell id="rLja4aOVXikeudo826eQ-39" value="&lt;span&gt;&lt;/span&gt;&lt;span style=&quot;font-size: 8px; white-space-collapse: preserve;&quot;&gt;target_collection_id&lt;/span&gt;&amp;nbsp; &lt;font style=&quot;font-size: 8px;&quot;&gt;(FK)&lt;/font&gt;" style="text;strokeColor=none;fillColor=none;align=left;verticalAlign=middle;spacingLeft=4;spacingRight=4;overflow=hidden;points=[[0,0.5],[1,0.5]];portConstraint=eastwest;rotatable=0;whiteSpace=wrap;html=1;" parent="rLja4aOVXikeudo826eQ-37" vertex="1">
          <mxGeometry y="60" width="140" height="30" as="geometry" />
        </mxCell>
        <mxCell id="Zzj0IOWBo7RuuzBgoP1q-2" style="edgeStyle=orthogonalEdgeStyle;rounded=0;orthogonalLoop=1;jettySize=auto;html=1;exitX=1;exitY=0.5;exitDx=0;exitDy=0;entryX=0.468;entryY=1.017;entryDx=0;entryDy=0;entryPerimeter=0;" edge="1" parent="1" source="rLja4aOVXikeudo826eQ-6" target="ZmzHimU4FkvrAkHHGpjB-12">
          <mxGeometry relative="1" as="geometry" />
        </mxCell>
      </root>
    </mxGraphModel>
  </diagram>
</mxfile>
